<svg width="100%" height="100%" viewBox="0 0 593 111" fill="currentColor" xmlns="http://www.w3.org/2000/svg">
<path d="M0 108.924V2.07606H29.7493C39.62 2.07606 47.5714 10.1035 47.5714 20.0686V90.9314C47.5714 100.896 39.62 108.924 29.7493 108.924H0ZM28.5154 84.98V26.1584C28.5154 23.5287 26.459 21.3142 23.8543 21.3142H19.056V89.8242H23.8543C26.459 89.8242 28.5154 87.6097 28.5154 84.98Z" />
<path d="M69.2547 21.3142V45.9501H89.9558V65.1883H69.2547V89.8242H93.109V108.924H50.1987V2.07606H93.109V21.3142H69.2547Z" />
<path d="M95.7245 108.924V2.07606H114.78V108.924H95.7245Z" />
<path d="M191.496 2.07606V21.3142H177.238V108.924H158.182V21.3142H143.65V2.07606H191.496Z" />
<path d="M222.776 2.07606H241.832V89.9626C241.832 101.589 232.509 111 220.994 111H215.099C203.583 111 194.26 101.589 194.26 89.9626V2.07606H213.316V87.0561C213.316 88.3017 213.865 89.5474 214.687 90.3778C215.51 91.3466 216.744 91.7618 218.115 91.7618C220.719 91.7618 222.776 89.5474 222.776 86.9177V2.07606Z" />
<path d="M292.305 47.8878C292.305 54.808 289.014 60.8977 283.942 64.6347L293.95 108.924H272.975L265.297 68.9252H263.789V108.924H244.733V2.07606H271.467C282.982 2.07606 292.305 11.4875 292.305 23.1135V47.8878ZM263.789 21.3142V49.687H268.45C271.055 49.687 273.249 47.611 273.249 44.8429V26.1584C273.249 23.5287 271.055 21.3142 268.45 21.3142H263.789Z" />
<path d="M347.302 108.924H328.246L315.77 65.1883H314.125V108.924H295.069V2.07606H314.125L326.601 45.9501H328.246V2.07606H347.302V108.924Z" />
<path d="M378.613 45.8117V24.2207C378.613 21.591 376.556 19.2382 373.951 19.2382C372.58 19.2382 371.347 19.7918 370.524 20.6222C369.701 21.591 369.153 22.6982 369.153 24.0823V87.0561C369.153 88.3017 369.701 89.5474 370.524 90.3778C371.347 91.2082 372.58 91.7618 373.951 91.7618C376.556 91.7618 378.613 89.5474 378.613 86.9177V65.0499H397.669V89.9626C397.669 101.589 388.346 111 376.83 111H370.935C359.419 111 350.097 101.589 350.097 89.9626V21.0374C350.097 9.41146 359.419 0 370.935 0H376.83C388.346 0 397.669 9.41146 397.669 21.0374V45.8117H378.613Z" />
<path d="M400.57 21.0374C400.57 9.41146 409.892 0 421.408 0H427.303C438.819 0 448.141 9.41146 448.141 21.0374V87.0561C448.141 100.204 437.448 111 424.424 111C411.263 111 400.57 100.204 400.57 87.0561V21.0374ZM419.626 87.0561C419.626 89.6858 421.682 91.7618 424.424 91.7618C427.029 91.7618 429.085 89.6858 429.085 87.0561V24.0823C429.085 21.4526 427.029 19.2382 424.424 19.2382C421.682 19.2382 419.626 21.4526 419.626 24.0823V87.0561Z" />
<path d="M491.785 2.07606L497.68 108.924H477.802L477.253 91.9002H470.262L469.713 108.924H449.835L455.73 2.07606H491.785ZM470.947 72.6621H476.431L474.649 21.3142H472.866L470.947 72.6621Z" />
<path d="M543.334 2.07606V21.3142H529.076V108.924H510.02V21.3142H495.488V2.07606H543.334Z" />
<path d="M573.944 38.0611V24.2207C573.944 21.591 571.888 19.2382 569.283 19.2382C567.912 19.2382 566.678 19.7918 565.855 20.6222C565.033 21.591 564.485 22.6982 564.485 24.0823V29.6184C564.485 31.2793 564.759 32.9401 565.17 34.601C565.855 37.0923 567.226 39.5835 569.146 41.5212L575.178 48.0262L583.541 56.884C589.573 63.2506 593 71.8317 593 80.6895V89.9626C593 91.485 592.863 92.8691 592.589 94.2531C590.669 103.803 582.17 111 572.162 111H566.267C554.751 111 545.429 101.589 545.429 89.9626V73.0773H564.485V86.9177C564.485 89.5474 566.541 91.7618 569.146 91.7618C570.517 91.7618 571.75 91.3466 572.573 90.3778C573.396 89.5474 573.944 88.3017 573.944 87.0561V81.3815C573.944 76.9526 572.299 72.8005 569.283 69.4788L566.13 66.2955L554.888 54.2544C554.065 53.2855 553.243 52.3167 552.42 51.3479C547.896 45.3965 545.429 38.0611 545.429 30.4489V21.0374C545.429 20.0686 545.566 19.0997 545.703 18.1309C545.703 17.7157 545.84 17.3005 545.84 16.7469C546.114 15.9165 546.251 14.9476 546.662 14.1172C549.404 5.95137 557.219 0 566.267 0H572.162C583.678 0 593 9.41146 593 21.0374V38.0611H573.944Z" />
</svg>
