<svg width="100%" height="100%" viewBox="0 0 594 107" fill="currentColor" xmlns="http://www.w3.org/2000/svg">
<path d="M0 12.85H25.87C34.43 12.85 41.39 19.79 41.39 28.37V89.43C41.39 97.99 34.45 104.95 25.87 104.95H0V12.85ZM24.83 33.55C24.83 31.26 22.98 29.41 20.69 29.41H16.55V88.39H20.69C22.98 88.39 24.83 86.54 24.83 84.25V33.54V33.55Z" />
<path d="M60.26 50.63H78.24V67.17H60.26V88.39H80.94V104.95H43.7V12.85H80.94V29.41H60.26V50.63Z" />
<path d="M83.27 12.85H99.83V104.94H83.27V12.85Z" />
<path d="M165.15 58.89L177.46 104.94H159.45L150.05 67.05H148.62V104.94H132.06V12.85H148.62V50.49H150.1L159.45 12.85H177.46L165.15 58.89Z" />
<path d="M220.79 104.93H203.48L202.94 90.19H196.95L196.4 104.93H179.13L184.31 12.85H215.61L220.79 104.93ZM202.33 73.65L200.71 29.42H199.22L197.57 73.65H202.33Z" />
<path d="M264.68 104.93H247.37L246.83 90.19H240.84L240.29 104.93H223.02L228.2 12.85H259.5L264.68 104.93ZM246.22 73.65L244.6 29.42H243.11L241.46 73.65H246.22Z" />
<path d="M295.8 104.94L284.98 67.16H283.51V104.94H266.95V12.85H283.51L294.33 50.61H295.8V12.85H312.36V104.94H295.8Z" />
<path d="M356.28 29.41H343.86V104.94H327.3V29.41H314.63V12.85H356.28V29.41Z" />
<path d="M376.17 11.08H381.35C391.35 11.08 399.46 19.19 399.46 29.19V86C399.46 97.43 390.19 106.69 378.77 106.69C367.35 106.69 358.08 97.42 358.08 86V29.19C358.08 19.19 366.19 11.08 376.19 11.08H376.17ZM378.76 90.14C381.05 90.14 382.9 88.29 382.9 86V31.78C382.9 29.49 381.05 27.64 378.76 27.64C376.47 27.64 374.62 29.49 374.62 31.78V86C374.62 88.28 376.47 90.14 378.76 90.14Z" />
<path d="M442.88 29.41H430.46V104.94H413.9V29.41H401.23V12.85H442.88V29.41Z" />
<path d="M482.6 104.93H465.29L464.75 90.19H458.76L458.21 104.93H440.94L446.12 12.85H477.42L482.6 104.93ZM464.14 73.65L462.52 29.42H461.03L459.38 73.65H464.14Z" />
<path d="M517.96 58.89L530.27 104.94H512.26L502.86 67.05H501.43V104.94H484.87V12.85H501.43V50.49H502.91L512.26 12.85H530.27L517.96 58.89Z" />
<path d="M532.69 12.85H549.25V104.94H532.69V12.85Z" />
<path d="M593.28 29.41H580.86V104.94H564.3V29.41H551.63V12.85H593.28V29.41Z" />
<path d="M197.09 0H184.31V8.03H197.09V0Z" />
<path d="M215.77 0H203.07V8.03H215.77V0Z" />
<path d="M240.44 0H227.66V8.03H240.44V0Z" />
<path d="M259.12 0H246.42V8.03H259.12V0Z" />
<path d="M376.47 0H363.69V8.03H376.47V0Z" />
<path d="M395.15 0H382.45V8.03H395.15V0Z" />
</svg>
