<svg width="inherit" height="inherit" viewBox="0 0 25 24" fill="currentColor" xmlns="http://www.w3.org/2000/svg">
<path d="M12.9221 0C6.30163 0 0.922119 5.37944 0.922119 11.9999C0.922119 18.503 6.11592 23.8045 12.5745 23.9906C12.6882 24.002 12.8058 23.9997 12.9221 23.9997C13.0384 23.9997 13.156 24.0026 13.2697 23.9906C19.7283 23.8045 24.9221 18.503 24.9221 11.9999C24.9221 5.37944 19.5426 0 12.9221 0ZM12.3367 1.25305V5.56094H8.96175C9.13207 5.07361 9.31597 4.60712 9.51967 4.18899C10.3221 2.54199 11.319 1.53381 12.3367 1.25305ZM13.5075 1.25305C14.5252 1.53381 15.5222 2.54199 16.3245 4.18899C16.5282 4.60712 16.7121 5.07361 16.8825 5.56094H13.5075V1.25305ZM9.78492 1.63719C9.2879 2.2068 8.84824 2.89601 8.46784 3.67681C8.18718 4.2529 7.93495 4.88728 7.71784 5.56094H4.2148C5.58354 3.71362 7.5295 2.31769 9.78492 1.63719ZM16.0593 1.63719C18.3147 2.31769 20.2607 3.71362 21.6294 5.56094H18.1264C17.9093 4.88728 17.657 4.2529 17.3764 3.67681C16.996 2.89601 16.5563 2.2068 16.0593 1.63719ZM3.4648 6.73165H7.38858C7.03633 8.1573 6.82547 9.74078 6.78492 11.4145H2.11114C2.20125 9.71719 2.68323 8.1322 3.4648 6.73165ZM8.60504 6.73165H12.3367V11.4145H7.9648C8.00868 9.72073 8.23614 8.12837 8.60504 6.73165ZM13.5075 6.73165H17.2392C17.6081 8.12837 17.8355 9.72073 17.8794 11.4145H13.5075V6.73165ZM18.4556 6.73165H22.3794C23.161 8.1322 23.643 9.71719 23.7331 11.4145H19.0593C19.0187 9.74078 18.8079 8.1573 18.4556 6.73165ZM2.11114 12.5853H6.78492C6.82482 14.2582 7.03745 15.8407 7.38858 17.2681H3.45565C2.67759 15.8701 2.20096 14.2784 2.11114 12.5853ZM7.9648 12.5853H12.3367V17.2681H8.59589C8.22828 15.8703 8.00826 14.2771 7.9648 12.5853ZM13.5075 12.5853H17.8794C17.836 14.2771 17.6159 15.8703 17.2483 17.2681H13.5075V12.5853ZM19.0593 12.5853H23.7331C23.6433 14.2784 23.1666 15.8701 22.3886 17.2681H18.4556C18.8068 15.8407 19.0194 14.2582 19.0593 12.5853ZM4.20565 18.4388H7.7087C7.9272 19.1206 8.18455 19.7506 8.46784 20.3321C8.84492 21.1061 9.28403 21.7973 9.77577 22.3626C7.52077 21.6796 5.57262 20.2883 4.20565 18.4388ZM8.9526 18.4388H12.3367V22.7467C11.3194 22.4677 10.3218 21.4664 9.51967 19.8199C9.31326 19.3963 9.1247 18.9342 8.9526 18.4388ZM13.5075 18.4388H16.8916C16.7195 18.9342 16.531 19.3963 16.3245 19.8199C15.5224 21.4664 14.5249 22.4677 13.5075 22.7467V18.4388ZM18.1355 18.4388H21.6386C20.2716 20.2883 18.3234 21.6796 16.0684 22.3626C16.5602 21.7973 16.9993 21.1061 17.3764 20.3321C17.6597 19.7506 17.917 19.1206 18.1355 18.4388Z" />
</svg>
