<svg width="100%" height="100%" viewBox="0 0 22 22" fill="currentColor" xmlns="http://www.w3.org/2000/svg">
<path fill-rule="evenodd" clip-rule="evenodd" d="M22 11C22 17.0751 17.0751 22 11 22C4.92487 22 0 17.0751 0 11C0 4.92487 4.92487 0 11 0C17.0751 0 22 4.92487 22 11ZM11 20.5C16.2467 20.5 20.5 16.2467 20.5 11C20.5 5.75329 16.2467 1.5 11 1.5C5.75329 1.5 1.5 5.75329 1.5 11C1.5 16.2467 5.75329 20.5 11 20.5Z" />
<path fill-rule="evenodd" clip-rule="evenodd" d="M15.8629 18.4161C14.86 20.3217 13.2147 22 11 22C8.78531 22 7.14004 20.3217 6.13709 18.4161C5.09768 16.4413 4.5 13.8168 4.5 11C4.5 8.18325 5.09768 5.55875 6.13709 3.58387C7.14004 1.67825 8.78531 0 11 0C13.2147 0 14.86 1.67825 15.8629 3.58387C16.9023 5.55875 17.5 8.18325 17.5 11C17.5 13.8168 16.9023 16.4413 15.8629 18.4161ZM11 20.5C13.7614 20.5 16 16.2467 16 11C16 5.75329 13.7614 1.5 11 1.5C8.23858 1.5 6 5.75329 6 11C6 16.2467 8.23858 20.5 11 20.5Z" />
<path fill-rule="evenodd" clip-rule="evenodd" d="M10.25 20.5V1.5H11.75V20.5H10.25Z" />
<path fill-rule="evenodd" clip-rule="evenodd" d="M0.875 10.25H20.875V11.75H0.875V10.25Z" />
</svg>
