<svg width="100%" height="100%" viewBox="0 0 609 107" fill="currentColor" xmlns="http://www.w3.org/2000/svg">
<path d="M0 12.85H25.87C34.43 12.85 41.39 19.79 41.39 28.37V89.43C41.39 97.99 34.45 104.95 25.87 104.95H0V12.85ZM24.83 33.55C24.83 31.26 22.98 29.41 20.69 29.41H16.55V88.39H20.69C22.98 88.39 24.83 86.54 24.83 84.25V33.54V33.55Z" />
<path d="M60.2599 50.63H78.2399V67.17H60.2599V88.39H80.94V104.95H43.7V12.85H80.94V29.41H60.2599V50.63Z" />
<path d="M83.27 12.85H99.83V104.94H83.27V12.85Z" />
<path d="M180.09 58.89L192.4 104.94H174.39L164.99 67.05H163.56V104.94H147V12.85H163.56V50.49H165.04L174.39 12.85H192.4L180.09 58.89Z" />
<path d="M235.73 104.93H218.42L217.88 90.19H211.89L211.34 104.93H194.07L199.25 12.85H230.55L235.73 104.93ZM217.27 73.65L215.65 29.42H214.16L212.51 73.65H217.27Z" />
<path d="M279.62 104.93H262.31L261.77 90.19H255.78L255.23 104.93H237.96L243.14 12.85H274.44L279.62 104.93ZM261.16 73.65L259.54 29.42H258.05L256.4 73.65H261.16Z" />
<path d="M310.74 104.94L299.92 67.16H298.45V104.94H281.89V12.85H298.45L309.27 50.61H310.74V12.85H327.3V104.94H310.74Z" />
<path d="M371.22 29.41H358.8V104.94H342.24V29.41H329.57V12.85H371.22V29.41Z" />
<path d="M391.11 11.08H396.29C406.29 11.08 414.4 19.19 414.4 29.19V86C414.4 97.43 405.13 106.69 393.71 106.69C382.29 106.69 373.02 97.42 373.02 86V29.19C373.02 19.19 381.13 11.08 391.13 11.08H391.11ZM393.7 90.14C395.99 90.14 397.84 88.29 397.84 86V31.78C397.84 29.49 395.99 27.64 393.7 27.64C391.41 27.64 389.56 29.49 389.56 31.78V86C389.56 88.28 391.41 90.14 393.7 90.14Z" />
<path d="M457.82 29.41H445.4V104.94H428.84V29.41H416.17V12.85H457.82V29.41Z" />
<path d="M497.54 104.93H480.23L479.69 90.19H473.7L473.15 104.93H455.88L461.06 12.85H492.36L497.54 104.93ZM479.08 73.65L477.46 29.42H475.97L474.32 73.65H479.08Z" />
<path d="M532.9 58.89L545.21 104.94H527.2L517.8 67.05H516.37V104.94H499.81V12.85H516.37V50.49H517.85L527.2 12.85H545.21L532.9 58.89Z" />
<path d="M547.63 12.85H564.19V104.94H547.63V12.85Z" />
<path d="M608.22 29.41H595.8V104.94H579.24V29.41H566.57V12.85H608.22V29.41Z" />
<path d="M212.09 0H199.31V8.03H212.09V0Z" />
<path d="M230.77 0H218.07V8.03H230.77V0Z" />
<path d="M255.44 0H242.66V8.03H255.44V0Z" />
<path d="M274.12 0H261.42V8.03H274.12V0Z" />
<path d="M391.47 0H378.69V8.03H391.47V0Z" />
<path d="M410.15 0H397.45V8.03H410.15V0Z" />
<path d="M102.444 66.7507V50H144.261V66.7507H102.444Z" />
</svg>
