<svg width="1009" height="1014" viewBox="0 0 1009 1014" fill="currentColor" xmlns="http://www.w3.org/2000/svg">
<path d="M8.16 407.29C11.82 390.25 18.98 378.06 29.64 370.73C40.29 363.4 54.5 361.65 72.27 365.47C81.57 367.47 89.58 370.28 96.32 373.88C103.06 377.49 108.41 381.99 112.38 387.38C116.35 392.78 118.91 399.11 120.05 406.37C121.19 413.64 120.77 421.87 118.79 431.06L110.63 469.02L0 445.25L8.16 407.29ZM106.66 427.17C107.02 425.52 107.33 423.42 107.61 420.89C107.89 418.36 107.83 415.59 107.45 412.59C107.07 409.59 106.24 406.52 104.97 403.38C103.7 400.24 101.7 397.25 98.96 394.39C96.23 391.54 92.6 388.89 88.1 386.46C83.59 384.03 77.93 382.08 71.12 380.62C64.51 379.2 58.46 378.57 52.96 378.74C47.47 378.91 42.57 380.07 38.27 382.23C33.97 384.39 30.37 387.58 27.46 391.82C24.55 396.06 22.36 401.59 20.89 408.4L15.56 433.19L101.4 451.65L106.66 427.17Z" />
<path d="M67.92 248.54L79.31 254.11L51.62 310.78L83.94 326.58L109.76 273.75L121.15 279.32L95.33 332.15L130.5 349.34L158.4 292.24L169.79 297.81L135.27 368.43L33.6 318.75L67.91 248.55L67.92 248.54Z" />
<path d="M94.97 210.51L187.51 275.63L178.84 287.94L86.3 222.82L94.96 210.51H94.97Z" />
<path d="M187.72 126.78L180.52 116.34L255.01 64.96L262.21 75.4L231.16 96.82L288.21 179.53L275.82 188.08L218.77 105.36L187.72 126.78Z" />
<path d="M394.29 120.17C389.65 129.67 380.66 136.96 367.33 142.02C353.7 147.2 341.83 148.01 331.72 144.44C321.61 140.88 313.87 132.04 308.5 117.91L282.84 50.35L296.91 45L322.57 112.56C326.17 122.04 331.42 128.27 338.32 131.25C345.21 134.23 353.4 133.91 362.88 130.31C371.87 126.9 377.78 121.86 380.61 115.18C383.44 108.51 383.06 100.43 379.46 90.95L353.8 23.39L367.87 18.04L393.53 85.6C398.67 99.13 398.92 110.65 394.28 120.16L394.29 120.17Z" />
<path d="M464.75 2.45C475.47 1.32 484.12 3.06 490.72 7.68C497.32 12.3 501.1 19.17 502.06 28.32C502.78 35.15 501.86 41.3 499.31 46.78C496.75 52.26 492.16 56.3 485.53 58.92L485.56 59.24C488.88 59.52 491.65 60.3 493.85 61.55C496.05 62.81 497.87 64.39 499.3 66.32C500.72 68.24 501.86 70.43 502.7 72.89C503.54 75.35 504.27 77.93 504.87 80.63C505.37 83.34 505.82 86.11 506.22 88.93C506.62 91.76 507.18 94.51 507.89 97.2C508.6 99.89 509.48 102.43 510.53 104.81C511.58 107.19 512.99 109.25 514.77 110.97L498.06 112.74C496.88 111.69 496.01 110.19 495.43 108.24C494.85 106.29 494.38 104.07 494.01 101.62C493.64 99.16 493.26 96.52 492.85 93.69C492.44 90.86 491.84 88.11 491.02 85.44C490.31 82.75 489.51 80.21 488.62 77.8C487.73 75.4 486.5 73.35 484.94 71.66C483.38 69.97 481.44 68.68 479.12 67.81C476.8 66.94 473.79 66.7 470.12 67.09L433.56 70.95L438.64 119.02L423.67 120.6L411.78 8.07L464.74 2.47L464.75 2.45ZM473.3 53.19C476.4 52.33 479.05 51.02 481.25 49.24C483.45 47.47 485.13 45.22 486.27 42.49C487.42 39.77 487.77 36.36 487.34 32.26C486.74 26.59 484.68 22.13 481.15 18.89C477.62 15.65 472.34 14.4 465.3 15.15L428.1 19.08L432.25 58.32L463.46 55.02C466.93 54.65 470.21 54.04 473.3 53.18V53.19Z" />
<path d="M556.83 2.49L601.4 102.42L601.71 102.47L616 11.83L630.09 14.05L612.46 125.83L596.18 123.26L551.93 24.35L551.62 24.3L537.47 114L523.38 111.78L541.02 0L556.83 2.49Z" />
<path d="M730.21 70.09C726.61 64.06 721.2 59.42 713.98 56.16C707.81 53.38 702.02 52.16 696.6 52.49C691.17 52.82 686.16 54.3 681.56 56.92C676.96 59.54 672.85 63.05 669.25 67.45C665.64 71.85 662.62 76.75 660.19 82.14C657.54 88.02 655.7 93.88 654.68 99.74C653.66 105.6 653.69 111.11 654.77 116.3C655.85 121.48 658.08 126.23 661.47 130.54C664.85 134.85 669.63 138.39 675.79 141.18C680.31 143.22 684.67 144.29 688.86 144.39C693.05 144.48 697.01 143.78 700.76 142.28C704.51 140.79 707.93 138.53 711.03 135.53C714.13 132.52 716.77 128.97 718.97 124.86L732.69 131.05C725.47 143.44 716.43 151.53 705.56 155.32C694.69 159.11 682.66 158.03 669.47 152.07C661.47 148.46 655.11 143.94 650.38 138.5C645.65 133.06 642.39 127.04 640.62 120.45C638.84 113.85 638.45 106.84 639.43 99.4C640.41 91.96 642.6 84.48 645.99 76.97C649.38 69.46 653.62 62.88 658.72 57.24C663.81 51.6 669.52 47.25 675.83 44.18C682.14 41.12 688.99 39.54 696.39 39.46C703.78 39.38 711.43 41.12 719.33 44.69C724.72 47.12 729.5 50.15 733.66 53.77C737.82 57.39 741.15 61.44 743.65 65.93C746.14 70.42 747.7 75.32 748.31 80.64C748.92 85.96 748.37 91.54 746.67 97.37L732.95 91.18C734.71 83.17 733.79 76.15 730.2 70.12L730.21 70.09Z" />
<path d="M772.05 113.37C778.37 109.36 785.04 106.71 792.05 105.41C799.06 104.11 806.21 104.38 813.5 106.21C820.79 108.04 827.87 111.83 834.76 117.6C841.65 123.37 846.63 129.68 849.72 136.52C852.8 143.37 854.32 150.37 854.28 157.49C854.24 164.62 852.8 171.65 849.97 178.57C847.13 185.5 843.24 191.92 838.29 197.83C833.34 203.75 827.71 208.71 821.39 212.72C815.07 216.73 808.4 219.39 801.39 220.68C794.38 221.98 787.25 221.69 780 219.82C772.74 217.95 765.68 214.14 758.79 208.37C751.9 202.6 746.9 196.32 743.78 189.51C740.66 182.7 739.12 175.73 739.17 168.6C739.21 161.47 740.65 154.44 743.48 147.52C746.31 140.59 750.21 134.17 755.16 128.26C760.11 122.35 765.74 117.38 772.06 113.37H772.05ZM757.56 152.29C755.13 157.49 753.71 162.81 753.3 168.25C752.88 173.69 753.71 179.03 755.79 184.28C757.87 189.53 761.54 194.36 766.81 198.77C772.08 203.18 777.48 205.94 783.01 207.06C788.55 208.18 793.96 208.06 799.24 206.69C804.52 205.32 809.5 202.98 814.2 199.68C818.89 196.37 823.07 192.54 826.73 188.16C830.39 183.79 833.43 179 835.86 173.79C838.28 168.59 839.71 163.27 840.12 157.83C840.54 152.39 839.71 147.04 837.63 141.79C835.55 136.54 831.88 131.71 826.61 127.3C821.34 122.89 815.94 120.13 810.4 119.01C804.86 117.89 799.46 118.01 794.18 119.38C788.9 120.75 783.91 123.08 779.22 126.39C774.53 129.7 770.35 133.54 766.69 137.91C763.03 142.29 759.99 147.07 757.56 152.28V152.29Z" />
<path d="M927.25 223.68L860.16 324.96L850.58 311.35L871.33 281.63L843.78 242.49L808.62 251.73L799.77 239.16L917.67 210.07L927.25 223.68ZM878.96 270.45L911.26 224.65L911.08 224.39L856.88 239.08L878.95 270.45H878.96Z" />
<path d="M940.4 265.21L951.97 260.03L988.94 342.63L977.37 347.81L961.96 313.38L870.25 354.43L864.1 340.69L955.81 299.64L940.4 265.21Z" />
<path d="M993.44 430.51C996.03 424.88 996.56 418.22 995.03 410.56C994.41 407.45 993.49 404.46 992.27 401.58C991.05 398.7 989.48 396.24 987.56 394.2C985.64 392.16 983.33 390.68 980.61 389.77C977.89 388.86 974.72 388.76 971.1 389.49C967.68 390.17 965.11 391.74 963.39 394.18C961.67 396.63 960.47 399.66 959.79 403.3C959.12 406.94 958.76 410.97 958.73 415.39C958.7 419.81 958.6 424.33 958.45 428.94C958.29 433.55 957.94 438.12 957.39 442.65C956.84 447.18 955.71 451.36 954 455.21C952.29 459.05 949.82 462.35 946.6 465.09C943.37 467.84 939.02 469.75 933.53 470.85C927.62 472.03 922.31 471.72 917.59 469.91C912.87 468.11 908.77 465.39 905.3 461.78C901.83 458.16 898.99 453.91 896.77 449.02C894.56 444.13 892.94 439.14 891.93 434.07C890.69 427.86 890.29 421.82 890.74 415.97C891.19 410.11 892.57 404.78 894.9 399.95C897.22 395.12 900.6 391 905.04 387.58C909.47 384.16 915.06 381.78 921.8 380.44L924.59 394.43C919.93 395.36 916.09 397.07 913.09 399.55C910.08 402.04 907.79 404.97 906.2 408.36C904.61 411.75 903.69 415.51 903.44 419.66C903.19 423.8 903.48 427.95 904.31 432.09C904.97 435.4 905.95 438.68 907.24 441.93C908.53 445.17 910.2 447.99 912.24 450.39C914.28 452.78 916.76 454.55 919.68 455.69C922.6 456.83 926.08 457 930.12 456.19C933.95 455.42 936.86 453.79 938.84 451.3C940.82 448.8 942.22 445.72 943.06 442.06C943.89 438.39 944.35 434.34 944.43 429.91C944.51 425.47 944.61 420.96 944.71 416.36C944.82 411.76 945.09 407.21 945.54 402.7C945.99 398.19 946.93 394.05 948.39 390.25C949.84 386.46 952.05 383.22 955.01 380.53C957.97 377.84 961.99 375.98 967.07 374.97C972.66 373.86 977.73 374.03 982.28 375.49C986.83 376.95 990.8 379.31 994.2 382.57C997.6 385.82 1000.42 389.73 1002.68 394.29C1004.94 398.85 1006.57 403.67 1007.59 408.74C1008.73 414.44 1009.11 419.85 1008.73 425C1008.36 430.14 1007.08 434.83 1004.92 439.09C1002.75 443.35 999.68 446.98 995.7 449.98C991.72 452.98 986.69 455.2 980.62 456.63L977.83 442.64C985.64 440.22 990.85 436.19 993.44 430.55V430.51Z" />
<path d="M175.31 744.74C175.67 737.73 173.74 730.86 169.55 724.14C165.97 718.41 161.83 714.17 157.13 711.44C152.43 708.71 147.44 707.15 142.16 706.77C136.88 706.39 131.52 707.03 126.08 708.69C120.63 710.35 115.4 712.74 110.39 715.88C104.92 719.29 100.14 723.15 96.04 727.46C91.94 731.76 88.9 736.37 86.93 741.28C84.95 746.19 84.17 751.38 84.6 756.85C85.02 762.31 87.02 767.92 90.61 773.65C93.24 777.86 96.27 781.17 99.71 783.57C103.14 785.98 106.83 787.6 110.78 788.43C114.72 789.26 118.82 789.29 123.07 788.51C127.32 787.73 131.49 786.24 135.6 784.04L143.58 796.81C130.7 803.11 118.69 804.82 107.54 801.94C96.4 799.06 86.99 791.48 79.33 779.2C74.68 771.76 71.9 764.47 70.98 757.32C70.06 750.17 70.7 743.36 72.89 736.88C75.07 730.41 78.64 724.35 83.59 718.71C88.53 713.07 94.5 708.06 101.49 703.7C108.48 699.34 115.66 696.22 123.03 694.36C130.39 692.5 137.56 692.04 144.51 693C151.46 693.95 158.03 696.45 164.23 700.49C170.43 704.53 175.82 710.22 180.41 717.57C183.54 722.59 185.84 727.76 187.29 733.08C188.74 738.4 189.26 743.62 188.85 748.74C188.43 753.86 187 758.8 184.56 763.57C182.11 768.33 178.56 772.67 173.9 776.58L165.92 763.81C171.83 758.12 174.97 751.77 175.32 744.76L175.31 744.74Z" />
<path d="M182.01 786.95C188.51 783.24 195.29 780.89 202.36 779.93C209.42 778.96 216.55 779.56 223.74 781.72C230.93 783.88 237.84 788.01 244.45 794.08C251.06 800.16 255.75 806.69 258.51 813.68C261.27 820.67 262.47 827.72 262.09 834.84C261.71 841.96 259.95 848.91 256.8 855.7C253.64 862.49 249.46 868.72 244.24 874.4C239.02 880.08 233.16 884.77 226.66 888.49C220.16 892.2 213.38 894.54 206.31 895.51C199.25 896.48 192.14 895.86 184.98 893.66C177.82 891.46 170.94 887.31 164.33 881.24C157.72 875.16 153.01 868.65 150.22 861.7C147.42 854.75 146.21 847.72 146.59 840.6C146.96 833.48 148.73 826.53 151.88 819.74C155.04 812.95 159.22 806.72 164.44 801.04C169.66 795.36 175.52 790.66 182.01 786.95ZM165.73 825.16C163.07 830.24 161.4 835.49 160.73 840.9C160.06 846.31 160.64 851.69 162.47 857.03C164.3 862.37 167.75 867.37 172.8 872.02C177.85 876.67 183.12 879.68 188.61 881.06C194.09 882.44 199.5 882.57 204.83 881.44C210.16 880.32 215.25 878.21 220.1 875.13C224.94 872.05 229.29 868.4 233.15 864.2C237.01 860 240.27 855.36 242.94 850.27C245.6 845.18 247.27 839.94 247.94 834.52C248.61 829.11 248.03 823.73 246.2 818.39C244.37 813.04 240.92 808.05 235.87 803.4C230.81 798.75 225.54 795.74 220.07 794.36C214.59 792.98 209.18 792.85 203.84 793.98C198.51 795.1 193.42 797.2 188.57 800.29C183.72 803.37 179.37 807.01 175.51 811.22C171.65 815.42 168.38 820.06 165.72 825.15L165.73 825.16Z" />
<path d="M302.74 841.82L254.03 929.7L306.43 958.74L300.28 969.83L234.72 933.49L289.58 834.52L302.75 841.82H302.74Z" />
<path d="M372.78 875.59L342.34 971.35L399.43 989.5L395.59 1001.58L324.15 978.87L358.43 871.03L372.78 875.59Z" />
<path d="M510.33 901.27L509.08 913.89L446.31 907.66L442.76 943.46L501.27 949.27L500.02 961.89L441.51 956.08L437.64 995.03L500.88 1001.31L499.63 1013.92L421.4 1006.16L432.58 893.55L510.33 901.27Z" />
<path d="M587.21 907.59C580.94 904.44 573.88 903.42 566.04 904.55C559.34 905.51 553.8 907.59 549.41 910.78C545.01 913.97 541.57 917.91 539.1 922.59C536.62 927.27 535.04 932.44 534.36 938.08C533.68 943.73 533.76 949.48 534.6 955.34C535.52 961.72 537.11 967.65 539.4 973.14C541.68 978.63 544.67 983.27 548.37 987.06C552.06 990.85 556.49 993.66 561.66 995.48C566.83 997.3 572.77 997.73 579.46 996.77C584.37 996.06 588.62 994.63 592.21 992.46C595.79 990.3 598.76 987.57 601.12 984.3C603.48 981.03 605.16 977.29 606.16 973.09C607.16 968.89 607.48 964.47 607.13 959.82L622.03 957.68C622.59 972.01 619.31 983.69 612.17 992.72C605.03 1001.75 594.3 1007.3 579.97 1009.35C571.29 1010.6 563.49 1010.2 556.58 1008.14C549.67 1006.09 543.69 1002.76 538.65 998.15C533.61 993.54 529.51 987.83 526.34 981.02C523.18 974.22 521.01 966.74 519.84 958.58C518.67 950.42 518.72 942.6 519.99 935.1C521.26 927.61 523.74 920.87 527.42 914.9C531.1 908.93 536.03 903.92 542.23 899.89C548.43 895.85 555.82 893.21 564.39 891.98C570.25 891.14 575.9 891.13 581.36 891.95C586.81 892.77 591.8 894.4 596.31 896.85C600.83 899.3 604.77 902.6 608.14 906.76C611.51 910.92 614.04 915.92 615.74 921.76L600.84 923.9C598.03 916.19 593.48 910.76 587.21 907.61V907.59Z" />
<path d="M611.82 900.2L607.17 888.41L691.34 855.17L696 866.96L660.92 880.82L697.82 974.27L683.82 979.8L646.91 886.34L611.83 900.19L611.82 900.2Z" />
<path d="M707.9 842.9L764.37 940.96L751.32 948.47L694.85 850.41L707.9 842.9Z" />
<path d="M742.98 864.84C740.08 857.94 738.58 850.93 738.47 843.8C738.37 836.67 739.83 829.67 742.85 822.79C745.87 815.91 750.8 809.56 757.64 803.73C764.47 797.91 771.53 794.05 778.8 792.15C786.07 790.26 793.21 789.93 800.24 791.16C807.26 792.39 813.95 794.99 820.3 798.94C826.65 802.89 832.33 807.81 837.34 813.68C842.34 819.55 846.29 825.94 849.19 832.84C852.09 839.74 853.59 846.76 853.7 853.88C853.81 861.01 852.33 867.99 849.27 874.83C846.21 881.67 841.26 888 834.43 893.83C827.59 899.65 820.56 903.53 813.32 905.47C806.08 907.4 798.96 907.76 791.93 906.52C784.91 905.29 778.22 902.69 771.87 898.74C765.51 894.79 759.84 889.87 754.83 884C749.83 878.13 745.88 871.75 742.98 864.84ZM778.92 885.64C783.64 888.9 788.65 891.19 793.94 892.52C799.23 893.84 804.64 893.92 810.17 892.75C815.7 891.58 821.08 888.77 826.3 884.31C831.52 879.86 835.15 874.99 837.19 869.72C839.22 864.45 840.01 859.09 839.54 853.66C839.07 848.23 837.6 842.92 835.13 837.74C832.66 832.56 829.57 827.8 825.87 823.46C822.17 819.12 817.96 815.31 813.23 812.05C808.5 808.79 803.5 806.49 798.21 805.17C792.92 803.85 787.51 803.78 781.98 804.94C776.45 806.11 771.07 808.92 765.85 813.38C760.62 817.84 756.99 822.7 754.96 827.97C752.93 833.24 752.14 838.59 752.61 844.03C753.07 849.46 754.54 854.77 757.02 859.95C759.49 865.13 762.58 869.89 766.28 874.23C769.98 878.57 774.19 882.38 778.92 885.64Z" />
<path d="M812.3 752.52L921.69 754.73L921.87 754.47L845.94 702.95L853.95 691.15L947.59 754.69L938.33 768.33L830 766.26L829.82 766.52L904.96 817.51L896.95 829.31L803.31 765.78L812.3 752.53V752.52Z" />
<path d="M532.58 525.05H603.74C612.59 525.05 617.02 535.75 610.76 542L555.09 597.67C527.8 624.96 491.35 639.99 452.45 639.99C416.67 639.99 382.96 627.27 356.55 604C352.64 600.55 346.71 600.78 343.02 604.47L334.75 612.74C330.68 616.81 330.95 623.44 335.26 627.26C367.5 655.88 408.72 671.52 452.45 671.52C499.77 671.52 544.14 653.21 577.38 619.97L633.06 564.29C639.32 558.03 650.01 562.46 650.01 571.31V642.47C650.01 647.95 654.46 652.4 659.94 652.4H671.61C677.09 652.4 681.54 647.95 681.54 642.47V503.45C681.54 497.97 677.09 493.52 671.61 493.52H532.59C527.11 493.52 522.66 497.97 522.66 503.45V515.12C522.66 520.6 527.11 525.05 532.59 525.05H532.58Z" />
<path d="M480.32 493.54H409.16C400.31 493.54 395.88 482.84 402.14 476.59L457.81 420.92C485.1 393.63 521.55 378.6 560.45 378.6C596.23 378.6 629.94 391.32 656.35 414.59C660.26 418.04 666.19 417.81 669.88 414.12L678.15 405.85C682.22 401.78 681.95 395.15 677.64 391.33C645.4 362.71 604.18 347.07 560.45 347.07C513.13 347.07 468.76 365.38 435.52 398.62L379.84 454.3C373.58 460.56 362.89 456.13 362.89 447.28V376.12C362.89 370.64 358.44 366.19 352.96 366.19H341.29C335.81 366.19 331.36 370.64 331.36 376.12V515.14C331.36 520.62 335.8 525.07 341.29 525.07H480.31C485.79 525.07 490.24 520.63 490.24 515.14V503.47C490.24 497.99 485.79 493.54 480.31 493.54H480.32Z" />
</svg>
