<svg width="100%" height="100%" viewBox="0 0 782 211" fill="currentColor" xmlns="http://www.w3.org/2000/svg">
<path d="M284.2 0C293.8 0 301.19 2.44 306.37 7.33C311.55 12.22 314.14 19.67 314.14 29.68C314.14 34.92 313.56 39.56 312.39 43.61C311.22 47.66 309.42 51.06 306.98 53.82C304.54 56.58 301.42 58.69 297.64 60.15C293.86 61.61 289.38 62.33 284.2 62.33H262.81V0H284.2ZM284.9 55.35C285.83 55.35 287 55.28 288.39 55.13C289.79 54.99 291.27 54.64 292.84 54.08C294.41 53.53 295.97 52.73 297.51 51.68C299.05 50.63 300.44 49.21 301.66 47.4C302.88 45.6 303.89 43.34 304.67 40.63C305.45 37.92 305.85 34.65 305.85 30.81C305.85 26.97 305.49 23.75 304.76 20.81C304.03 17.87 302.84 15.37 301.18 13.3C299.52 11.24 297.38 9.66 294.76 8.59C292.14 7.51 288.91 6.97 285.07 6.97H271.1V55.34H284.89L284.9 55.35Z" />
<path d="M365.13 0V6.98H330.38V26.8H362.77V33.78H330.38V55.34H365.39V62.32H322.09V0H365.13Z" />
<path d="M381.89 0V62.33H373.6V0H381.89Z" />
<path d="M262.98 82.41V75.43H312.83V82.41H292.05V137.76H283.76V82.41H262.98Z" />
<path d="M360.93 133.18C356.68 137.17 350.63 139.16 342.77 139.16C334.91 139.16 328.47 137.25 323.96 133.44C319.45 129.63 317.19 123.56 317.19 115.24V75.43H325.48V115.24C325.48 120.83 326.96 125.06 329.93 127.94C332.9 130.82 337.18 132.26 342.76 132.26C348.06 132.26 352.09 130.82 354.85 127.94C357.61 125.06 359 120.83 359 115.24V75.43H367.29V115.24C367.29 123.21 365.16 129.19 360.92 133.18H360.93Z" />
<path d="M535.26 84.25C532.09 82.04 528.32 80.93 523.95 80.93C520.23 80.93 517.04 81.63 514.39 83.03C511.74 84.43 509.56 86.3 507.84 88.66C506.12 91.02 504.86 93.71 504.04 96.74C503.22 99.77 502.82 102.91 502.82 106.17C502.82 109.72 503.23 113.08 504.04 116.25C504.85 119.42 506.12 122.19 507.84 124.54C509.56 126.9 511.75 128.77 514.43 130.17C517.11 131.57 520.31 132.27 524.03 132.27C526.76 132.27 529.19 131.82 531.32 130.92C533.44 130.02 535.28 128.77 536.82 127.17C538.36 125.57 539.57 123.66 540.44 121.45C541.31 119.24 541.84 116.85 542.01 114.29H550.3C549.48 122.15 546.78 128.26 542.18 132.62C537.58 136.99 531.3 139.17 523.32 139.17C518.49 139.17 514.27 138.34 510.66 136.68C507.05 135.02 504.05 132.74 501.67 129.83C499.28 126.92 497.49 123.49 496.3 119.53C495.11 115.57 494.51 111.32 494.51 106.78C494.51 102.24 495.15 97.98 496.43 93.99C497.71 90 499.59 86.53 502.06 83.56C504.53 80.59 507.62 78.25 511.31 76.53C515.01 74.81 519.24 73.95 524.01 73.95C527.27 73.95 530.35 74.39 533.26 75.26C536.17 76.13 538.76 77.41 541.03 79.1C543.3 80.79 545.19 82.9 546.71 85.43C548.22 87.96 549.21 90.89 549.68 94.2H541.39C540.46 89.78 538.41 86.46 535.24 84.25H535.26Z" />
<path d="M556.82 94.33C558.07 90.4 559.95 86.93 562.45 83.9C564.95 80.87 568.07 78.46 571.79 76.65C575.51 74.85 579.85 73.94 584.8 73.94C589.75 73.94 594.08 74.84 597.81 76.65C601.53 78.46 604.65 80.87 607.15 83.9C609.65 86.93 611.53 90.4 612.78 94.33C614.03 98.26 614.66 102.35 614.66 106.6C614.66 110.85 614.03 114.94 612.78 118.87C611.53 122.8 609.65 126.28 607.15 129.3C604.65 132.33 601.53 134.73 597.81 136.5C594.09 138.27 589.75 139.16 584.8 139.16C579.85 139.16 575.52 138.27 571.79 136.5C568.07 134.73 564.95 132.32 562.45 129.3C559.95 126.27 558.07 122.8 556.82 118.87C555.57 114.94 554.94 110.85 554.94 106.6C554.94 102.35 555.56 98.26 556.82 94.33ZM564.46 115.89C565.27 118.94 566.56 121.7 568.3 124.14C570.05 126.58 572.29 128.55 575.02 130.03C577.75 131.51 581.01 132.26 584.8 132.26C588.59 132.26 591.84 131.52 594.58 130.03C597.31 128.55 599.56 126.58 601.3 124.14C603.05 121.7 604.33 118.94 605.14 115.89C605.95 112.83 606.36 109.73 606.36 106.59C606.36 103.45 605.95 100.35 605.14 97.29C604.32 94.23 603.04 91.48 601.3 89.04C599.55 86.6 597.31 84.63 594.58 83.15C591.84 81.67 588.58 80.92 584.8 80.92C581.02 80.92 577.76 81.66 575.02 83.15C572.28 84.63 570.04 86.6 568.3 89.04C566.55 91.48 565.27 94.24 564.46 97.29C563.64 100.34 563.24 103.44 563.24 106.59C563.24 109.74 563.65 112.83 564.46 115.89Z" />
<path d="M648.71 75.43L673.07 137.76H663.9L657.09 118.99H630.73L623.75 137.76H615.28L639.55 75.43H648.72H648.71ZM654.47 112.01L644.08 82.94H643.91L633.35 112.01H654.48H654.47Z" />
<path d="M662.33 82.41V75.43H712.18V82.41H691.4V137.76H683.11V82.41H662.33Z" />
<path d="M748.1 83.94C745.33 81.93 741.8 80.93 737.49 80.93C735.74 80.93 734.03 81.1 732.34 81.45C730.65 81.8 729.15 82.38 727.84 83.2C726.53 84.02 725.48 85.11 724.7 86.47C723.91 87.84 723.52 89.54 723.52 91.58C723.52 93.5 724.09 95.06 725.22 96.25C726.36 97.44 727.87 98.42 729.76 99.18C731.65 99.94 733.79 100.56 736.18 101.06C738.57 101.56 740.99 102.09 743.47 102.68C745.94 103.26 748.37 103.95 750.76 104.73C753.15 105.52 755.28 106.58 757.18 107.92C759.07 109.26 760.59 110.95 761.72 112.98C762.86 115.02 763.42 117.58 763.42 120.66C763.42 123.98 762.68 126.81 761.19 129.17C759.71 131.53 757.8 133.45 755.47 134.93C753.14 136.41 750.54 137.49 747.66 138.16C744.78 138.83 741.91 139.16 739.06 139.16C735.57 139.16 732.26 138.72 729.15 137.85C726.04 136.98 723.3 135.65 720.94 133.88C718.58 132.11 716.72 129.84 715.35 127.07C713.98 124.31 713.3 121.03 713.3 117.25H721.16C721.16 119.87 721.67 122.13 722.69 124.02C723.71 125.91 725.05 127.47 726.71 128.69C728.37 129.91 730.3 130.82 732.52 131.4C734.73 131.98 737 132.27 739.33 132.27C741.19 132.27 743.07 132.1 744.96 131.75C746.85 131.4 748.55 130.81 750.07 129.96C751.58 129.12 752.8 127.97 753.74 126.51C754.67 125.06 755.14 123.19 755.14 120.92C755.14 118.77 754.57 117.02 753.44 115.68C752.3 114.34 750.79 113.25 748.9 112.41C747.01 111.57 744.87 110.88 742.48 110.36C740.09 109.84 737.66 109.3 735.19 108.75C732.72 108.2 730.29 107.56 727.9 106.83C725.51 106.1 723.37 105.14 721.48 103.95C719.59 102.76 718.08 101.22 716.94 99.32C715.8 97.43 715.24 95.06 715.24 92.21C715.24 89.07 715.88 86.35 717.16 84.05C718.44 81.75 720.14 79.86 722.27 78.38C724.39 76.9 726.81 75.79 729.52 75.06C732.23 74.33 735 73.97 737.86 73.97C741.06 73.97 744.03 74.35 746.76 75.11C749.49 75.87 751.9 77.06 753.96 78.69C756.02 80.32 757.66 82.37 758.85 84.84C760.04 87.31 760.7 90.27 760.81 93.7H752.95C752.48 89.22 750.87 85.97 748.11 83.97L748.1 83.94Z" />
<path d="M307.29 155.49C304.12 153.28 300.35 152.17 295.99 152.17C292.26 152.17 289.08 152.87 286.43 154.27C283.78 155.67 281.6 157.54 279.88 159.9C278.16 162.26 276.9 164.95 276.08 167.98C275.26 171.01 274.86 174.15 274.86 177.41C274.86 180.96 275.27 184.32 276.08 187.49C276.89 190.66 278.16 193.43 279.88 195.78C281.6 198.14 283.79 200.01 286.47 201.41C289.15 202.81 292.35 203.51 296.07 203.51C298.8 203.51 301.23 203.06 303.36 202.16C305.48 201.26 307.32 200.01 308.86 198.41C310.4 196.81 311.61 194.9 312.48 192.69C313.35 190.48 313.88 188.09 314.05 185.53H322.34C321.52 193.39 318.82 199.5 314.22 203.86C309.62 208.23 303.34 210.41 295.36 210.41C290.53 210.41 286.31 209.58 282.7 207.92C279.09 206.26 276.09 203.98 273.71 201.07C271.32 198.16 269.53 194.73 268.34 190.77C267.15 186.81 266.55 182.56 266.55 178.02C266.55 173.48 267.19 169.22 268.47 165.23C269.75 161.24 271.63 157.77 274.1 154.8C276.57 151.83 279.66 149.49 283.35 147.77C287.05 146.05 291.28 145.19 296.05 145.19C299.31 145.19 302.39 145.63 305.3 146.5C308.21 147.37 310.8 148.65 313.07 150.34C315.34 152.03 317.23 154.14 318.74 156.67C320.25 159.2 321.24 162.13 321.71 165.44H313.42C312.49 161.02 310.44 157.7 307.26 155.49H307.29Z" />
<path d="M328.85 165.57C330.1 161.64 331.98 158.17 334.48 155.14C336.98 152.11 340.1 149.7 343.82 147.89C347.54 146.09 351.88 145.18 356.83 145.18C361.78 145.18 366.11 146.08 369.84 147.89C373.56 149.7 376.68 152.11 379.18 155.14C381.68 158.17 383.56 161.64 384.81 165.57C386.06 169.5 386.69 173.59 386.69 177.84C386.69 182.09 386.06 186.18 384.81 190.11C383.56 194.04 381.68 197.52 379.18 200.54C376.68 203.57 373.56 205.97 369.84 207.74C366.11 209.51 361.78 210.4 356.83 210.4C351.88 210.4 347.55 209.51 343.82 207.74C340.1 205.97 336.98 203.56 334.48 200.54C331.98 197.51 330.1 194.04 328.85 190.11C327.6 186.18 326.97 182.09 326.97 177.84C326.97 173.59 327.6 169.5 328.85 165.57ZM336.49 187.14C337.3 190.19 338.58 192.95 340.33 195.39C342.08 197.83 344.32 199.8 347.05 201.28C349.78 202.76 353.04 203.51 356.83 203.51C360.62 203.51 363.87 202.77 366.61 201.28C369.34 199.8 371.59 197.83 373.33 195.39C375.08 192.95 376.36 190.19 377.17 187.14C377.98 184.08 378.39 180.98 378.39 177.84C378.39 174.7 377.98 171.6 377.17 168.54C376.35 165.48 375.07 162.73 373.33 160.29C371.58 157.85 369.34 155.88 366.61 154.4C363.87 152.92 360.61 152.17 356.83 152.17C353.05 152.17 349.79 152.91 347.05 154.4C344.31 155.88 342.07 157.85 340.33 160.29C338.58 162.73 337.3 165.49 336.49 168.54C335.67 171.59 335.27 174.69 335.27 177.84C335.27 180.99 335.68 184.08 336.49 187.14Z" />
<path d="M402.93 146.67V202.02H435.93V209H394.64V146.67H402.93Z" />
<path d="M449.28 146.67V202.02H482.28V209H440.99V146.67H449.28Z" />
<path d="M530.38 153.65H495.63V173.47H528.02V180.45H495.63V202.01H530.64V208.99H487.34V146.66H530.38V153.65Z" />
<path d="M576.17 155.49C573 153.28 569.23 152.17 564.86 152.17C561.14 152.17 557.95 152.87 555.3 154.27C552.65 155.67 550.47 157.54 548.75 159.9C547.03 162.26 545.77 164.95 544.95 167.98C544.13 171.01 543.73 174.15 543.73 177.41C543.73 180.96 544.14 184.32 544.95 187.49C545.76 190.66 547.03 193.43 548.75 195.78C550.47 198.14 552.66 200.01 555.34 201.41C558.02 202.81 561.22 203.51 564.94 203.51C567.67 203.51 570.1 203.06 572.23 202.16C574.35 201.26 576.19 200.01 577.73 198.41C579.27 196.81 580.48 194.9 581.35 192.69C582.22 190.48 582.75 188.09 582.92 185.53H591.21C590.39 193.39 587.69 199.5 583.09 203.86C578.49 208.23 572.21 210.41 564.23 210.41C559.4 210.41 555.18 209.58 551.57 207.92C547.96 206.26 544.96 203.98 542.58 201.07C540.19 198.16 538.4 194.73 537.21 190.77C536.02 186.81 535.42 182.56 535.42 178.02C535.42 173.48 536.06 169.22 537.34 165.23C538.62 161.24 540.5 157.77 542.97 154.8C545.44 151.83 548.53 149.49 552.22 147.77C555.92 146.05 560.15 145.19 564.92 145.19C568.18 145.19 571.26 145.63 574.17 146.5C577.08 147.37 579.67 148.65 581.94 150.34C584.21 152.03 586.1 154.14 587.62 156.67C589.13 159.2 590.12 162.13 590.59 165.44H582.3C581.37 161.02 579.32 157.7 576.15 155.49H576.17Z" />
<path d="M592.72 153.66V146.68H642.57V153.66H621.79V209.01H613.5V153.66H592.72Z" />
<path d="M655.92 146.67V209H647.63V146.67H655.92Z" />
<path d="M666.09 165.57C667.34 161.64 669.22 158.17 671.72 155.14C674.22 152.11 677.34 149.7 681.06 147.89C684.78 146.09 689.12 145.18 694.07 145.18C699.02 145.18 703.35 146.08 707.08 147.89C710.8 149.7 713.92 152.11 716.42 155.14C718.92 158.17 720.8 161.64 722.05 165.57C723.3 169.5 723.93 173.59 723.93 177.84C723.93 182.09 723.3 186.18 722.05 190.11C720.8 194.04 718.92 197.52 716.42 200.54C713.92 203.57 710.8 205.97 707.08 207.74C703.36 209.51 699.02 210.4 694.07 210.4C689.12 210.4 684.79 209.51 681.06 207.74C677.34 205.97 674.22 203.56 671.72 200.54C669.22 197.51 667.34 194.04 666.09 190.11C664.84 186.18 664.21 182.09 664.21 177.84C664.21 173.59 664.83 169.5 666.09 165.57ZM673.73 187.14C674.54 190.19 675.83 192.95 677.57 195.39C679.32 197.83 681.56 199.8 684.29 201.28C687.02 202.76 690.28 203.51 694.07 203.51C697.86 203.51 701.11 202.77 703.85 201.28C706.58 199.8 708.83 197.83 710.57 195.39C712.32 192.95 713.6 190.19 714.41 187.14C715.22 184.08 715.63 180.98 715.63 177.84C715.63 174.7 715.22 171.6 714.41 168.54C713.59 165.48 712.31 162.73 710.57 160.29C708.82 157.85 706.58 155.88 703.85 154.4C701.11 152.92 697.85 152.17 694.07 152.17C690.29 152.17 687.03 152.91 684.29 154.4C681.55 155.88 679.31 157.85 677.57 160.29C675.82 162.73 674.54 165.49 673.73 168.54C672.91 171.59 672.51 174.69 672.51 177.84C672.51 180.99 672.92 184.08 673.73 187.14Z" />
<path d="M740.6 146.67L773.43 197.22H773.6V146.67H781.46V209H772.38L739.82 158.98H739.65V209H731.79V146.67H740.61H740.6Z" />
<path d="M424.82 75.43V137.76H416.53V111.13H396.28C394.24 111.13 392.61 111.44 391.39 112.05C390.17 112.66 389.18 113.48 388.42 114.49C387.66 115.51 387.11 116.7 386.76 118.07C386.41 119.44 386.12 120.88 385.89 122.39C385.6 123.9 385.43 125.44 385.37 127.02C385.31 128.59 385.25 130.06 385.2 131.43C385.14 132.8 385.01 134.04 384.81 135.14C384.61 136.25 384.21 137.12 383.63 137.76H374.38C375.25 136.71 375.91 135.51 376.34 134.14C376.78 132.77 377.11 131.33 377.34 129.82C377.57 128.31 377.72 126.76 377.78 125.19C377.84 123.62 377.93 122.08 378.04 120.56C378.21 119.05 378.46 117.59 378.78 116.2C379.1 114.8 379.6 113.54 380.26 112.4C380.93 111.26 381.83 110.29 382.97 109.47C384.11 108.66 385.58 108.07 387.38 107.72V107.55C383.6 106.5 380.85 104.55 379.13 101.7C377.41 98.85 376.55 95.53 376.55 91.75C376.55 86.69 378.22 82.7 381.57 79.79C384.92 76.88 389.56 75.42 395.5 75.42H424.83L424.82 75.43ZM399.24 104.15H416.53V82.41H395.93C392.03 82.41 389.21 83.4 387.46 85.38C385.71 87.36 384.84 89.92 384.84 93.06C384.84 95.33 385.23 97.18 386.02 98.6C386.81 100.03 387.85 101.16 389.16 102.01C390.47 102.85 392 103.42 393.74 103.71C395.49 104 397.32 104.15 399.24 104.15Z" />
<path d="M487.2 75.43V137.76H479.34V87.74H479.17L446.61 137.76H437.53V75.43H445.39V125.98H445.56L478.39 75.43H487.21H487.2Z" />
<path d="M122.07 118.05H165.24C170.61 118.05 173.3 124.54 169.5 128.33L135.72 162.11C119.16 178.67 97.05 187.78 73.45 187.78C51.74 187.78 31.29 180.07 15.27 165.94C12.9 163.85 9.3 163.99 7.06 166.22L2.04 171.24C-0.43 173.71 -0.27 177.73 2.35 180.05C21.91 197.41 46.91 206.9 73.45 206.9C102.16 206.9 129.07 195.79 149.24 175.62L183.02 141.84C186.82 138.04 193.3 140.73 193.3 146.1V189.27C193.3 192.6 196 195.29 199.32 195.29H206.4C209.73 195.29 212.42 192.59 212.42 189.27V104.93C212.42 101.6 209.72 98.91 206.4 98.91H122.06C118.73 98.91 116.04 101.61 116.04 104.93V112.01C116.04 115.34 118.74 118.03 122.06 118.03L122.07 118.05Z" />
<path d="M90.37 98.93H47.2C41.83 98.93 39.15 92.44 42.94 88.65L76.72 54.87C93.28 38.31 115.39 29.2 138.99 29.2C160.7 29.2 181.15 36.91 197.17 51.04C199.54 53.13 203.14 52.99 205.38 50.76L210.4 45.74C212.87 43.27 212.71 39.25 210.09 36.93C190.53 19.57 165.53 10.08 138.99 10.08C110.28 10.08 83.37 21.19 63.2 41.36L29.42 75.14C25.62 78.94 19.14 76.25 19.14 70.88V27.69C19.14 24.36 16.44 21.67 13.12 21.67H6.04C2.7 21.66 0 24.36 0 27.69V112.03C0 115.36 2.7 118.05 6.02 118.05H90.36C93.69 118.05 96.38 115.35 96.38 112.03V104.95C96.38 101.62 93.68 98.93 90.36 98.93H90.37Z" />
</svg>
