<svg width="inherit" height="inherit" viewBox="0 0 28 22" fill="currentColor" xmlns="http://www.w3.org/2000/svg">
<path d="M23.0521 21.9964H5.87011C4.89788 21.9964 4.04242 21.3527 3.78942 20.4316L0.997954 10.2833C0.823646 9.65226 0.953108 8.98913 1.35249 8.46556C1.76372 7.92676 2.39326 7.61719 3.07865 7.61719H25.8436C26.5298 7.61719 27.1585 7.92592 27.5689 8.46471C27.9691 8.98828 28.0986 9.65142 27.9243 10.2833L25.132 20.4324C24.8806 21.3527 24.0252 21.9964 23.0521 21.9964ZM3.07865 9.30885C2.92549 9.30885 2.78672 9.37483 2.69872 9.49071C2.65388 9.54992 2.58534 9.67341 2.62934 9.83496L5.4208 19.9841C5.47242 20.1727 5.65772 20.3047 5.87011 20.3047H23.0521C23.2645 20.3047 23.449 20.1736 23.4997 19.985L26.2929 9.83496C26.3377 9.67341 26.2683 9.54992 26.2235 9.49071C26.1355 9.37483 25.9976 9.30885 25.8436 9.30885H3.07865Z" />
<path d="M5.99944 9.30482C5.81752 9.30482 5.63475 9.24646 5.48075 9.12719C5.11098 8.83961 5.04498 8.30842 5.33098 7.93964L11.2541 0.327137C11.5409 -0.0424923 12.0731 -0.108467 12.4412 0.17827C12.8101 0.465008 12.877 0.997037 12.5901 1.36497L6.66706 8.97748C6.50036 9.19232 6.25075 9.30482 5.99944 9.30482Z" />
<path d="M22.9239 9.3031C22.6717 9.3031 22.4221 9.1906 22.2554 8.9766L16.3323 1.3641C16.0446 0.995316 16.1115 0.464132 16.4804 0.177394C16.851 -0.108497 17.3807 -0.0416764 17.6676 0.326261L23.5906 7.93877C23.8783 8.30755 23.8115 8.83873 23.4426 9.12547C23.2886 9.24473 23.1049 9.3031 22.9239 9.3031Z" />
</svg>
