<svg width="100%" height="100%" viewBox="0 0 10 13" fill="currentColor" xmlns="http://www.w3.org/2000/svg">
<path d="M1.5 4.5V11.5H8.5V4.5H1.5ZM5 1.5C4.33213 1.5 3.95283 1.97353 3.72461 2.6582C3.62626 2.95325 3.57148 3.25402 3.54004 3.5H6.45996C6.42852 3.25402 6.37374 2.95325 6.27539 2.6582C6.04717 1.97353 5.66787 1.5 5 1.5ZM9.5 11.5C9.5 12.0523 9.05228 12.5 8.5 12.5H1.5C0.947715 12.5 0.5 12.0523 0.5 11.5V4.5C0.5 3.94772 0.947715 3.5 1.5 3.5H2.53223C2.53307 3.4921 2.53329 3.48363 2.53418 3.47559C2.56782 3.17302 2.63569 2.76091 2.77539 2.3418C3.04717 1.52647 3.66787 0.5 5 0.5C6.33213 0.5 6.95283 1.52647 7.22461 2.3418C7.36431 2.76091 7.43218 3.17302 7.46582 3.47559C7.46671 3.48363 7.46693 3.4921 7.46777 3.5H8.5C9.05229 3.5 9.5 3.94772 9.5 4.5V11.5Z" />
</svg>
