<?xml version="1.0" encoding="UTF-8"?>
<svg xmlns="http://www.w3.org/2000/svg" xmlns:xlink="http://www.w3.org/1999/xlink" viewBox="0 0 826.7 195.96">
  <defs>
    <clipPath id="clippath">
      <rect x="38.33" y="47.32" width="109.53" height="109.52" style="fill: none;"/>
    </clipPath>
    <clipPath id="clippath-1">
      <rect x="38.33" y="47.32" width="109.53" height="109.52" style="fill: none;"/>
    </clipPath>
    <clipPath id="clippath-2">
      <rect y="25.71" width="76.67" height="76.67" style="fill: none;"/>
    </clipPath>
    <clipPath id="clippath-3">
      <rect y="25.71" width="76.67" height="76.67" style="fill: none;"/>
    </clipPath>
    <clipPath id="clippath-4">
      <rect x="88.05" y="142.29" width="53.67" height="53.67" style="fill: none;"/>
    </clipPath>
    <clipPath id="clippath-5">
      <rect x="88.05" y="142.29" width="53.67" height="53.67" style="fill: none;"/>
    </clipPath>
    <clipPath id="clippath-6">
      <rect x="142.81" width="37.57" height="37.57" style="fill: none;"/>
    </clipPath>
    <clipPath id="clippath-7">
      <rect x="142.81" y="0" width="37.57" height="37.57" style="fill: none;"/>
    </clipPath>
  </defs>
  <g style="isolation: isolate;">
    <g id="Layer_1" data-name="Layer 1">
      <g style="mix-blend-mode: multiply;">
        <g style="clip-path: url(#clippath);">
          <g style="clip-path: url(#clippath-1);">
            <path d="M147.86,102.08c0-30.24-24.52-54.76-54.76-54.76s-54.76,24.52-54.76,54.76,24.52,54.76,54.76,54.76,54.76-24.52,54.76-54.76" style="fill: #6abd28;"/>
          </g>
        </g>
      </g>
      <path d="M216.58,148.05h-18.64l-31.73-91.4h17.51l.14.41,23.4,70.57,23.66-70.99h17.38l-31.73,91.4ZM276.62,149.72c-18.02,0-32.68-15.47-32.68-34.49s14.36-34.49,32.68-34.49c9.13,0,16.68,3.34,21.95,9.68v-8h15.12v65.63h-15.12v-8.11c-5.24,6.41-12.79,9.78-21.95,9.78M278.81,95.21c-11.45,0-19.76,8.42-19.76,20.02s8.31,20.02,19.76,20.02,19.76-8.42,19.76-20.02-8.31-20.02-19.76-20.02M359.73,149.72c-20.99,0-35.65-14.18-35.65-34.49s14.56-34.49,34.62-34.49c17.27,0,30.64,12.59,32.67,29.97.6,6.86-.32,11.05-.32,11.05h-51.05c2.24,8.79,9.61,14,19.86,14,6.88,0,12.76-2.82,16.13-7.73l12.46,7.38c-6.24,9.23-16.44,14.31-28.72,14.31M339.86,109.22h36.42c-2.2-10.78-10.53-14.65-17.7-14.65-9.64,0-16.59,5.46-18.72,14.65M595.6,148.05h-15.12V52.78h15.12v95.27ZM624.43,148.05h-15.11v-65.63h15.11v65.63ZM653.19,148.05h-15.11v-65.63h15.11v65.63ZM521.24,75.69c-5.15,0-9.49-4.35-9.49-9.49s4.26-9.49,9.49-9.49,9.49,4.26,9.49,9.49-4.35,9.49-9.49,9.49M550,75.69c-5.15,0-9.49-4.35-9.49-9.49s4.26-9.49,9.49-9.49,9.49,4.26,9.49,9.49-4.35,9.49-9.49,9.49M265.86,75.69c-5.15,0-9.49-4.35-9.49-9.49s4.26-9.49,9.49-9.49,9.49,4.26,9.49,9.49-4.35,9.49-9.49,9.49M294.62,75.69c-5.15,0-9.5-4.35-9.5-9.49s4.26-9.49,9.5-9.49,9.49,4.26,9.49,9.49-4.35,9.49-9.49,9.49M645.63,75.69c-5.15,0-9.49-4.35-9.49-9.49s4.26-9.49,9.49-9.49,9.49,4.26,9.49,9.49-4.34,9.49-9.49,9.49M616.87,75.69c-5.15,0-9.49-4.35-9.49-9.49s4.26-9.49,9.49-9.49,9.49,4.26,9.49,9.49-4.35,9.49-9.49,9.49M703.8,147.98c-15.01,1.4-30.53-1.53-30.53-20.47v-30.49h-11.85v-14.6h11.85v-16.22h15.12v16.22h15.5v14.6h-15.5v27.75c0,8.03,4.07,10.43,15.4,9.57v13.63ZM496.19,147.98c-15.01,1.4-30.53-1.53-30.53-20.47v-30.49h-11.85v-14.6h11.85v-16.22h15.12v16.22h15.5v14.6h-15.5v27.75c0,8.03,4.07,10.43,15.4,9.57v13.63ZM423.43,149.72c-12.7,0-22.48-5.62-26.83-15.43l13.1-7.4c2.01,5.64,7.01,8.88,13.74,8.88,3.87,0,10.36-.86,10.36-6.62,0-4.29-5.77-5.92-12.44-7.81-9.9-2.81-22.22-6.3-22.22-20.28,0-11.96,9.94-20.32,24.18-20.32,10.86,0,19.74,5,24.37,13.72l-12.8,7.1c-2.08-4.51-6.19-7-11.57-7-4.06,0-8.81,1.63-8.81,6.23s5.73,5.97,12.38,7.81c9.93,2.76,22.29,6.19,22.29,20.66,0,12.23-10.34,20.44-25.73,20.44M535.62,80.74c-19.41,0-34.62,15.15-34.62,34.49s15.21,34.49,34.62,34.49,34.62-15.15,34.62-34.49-15.21-34.49-34.62-34.49M535.62,134.99c-11.12,0-19.5-8.49-19.5-19.76s8.38-19.76,19.5-19.76,19.5,8.5,19.5,19.76-8.38,19.76-19.5,19.76M752.65,147.98c-15.02,1.4-30.53-1.53-30.53-20.47v-30.49h-11.85v-14.6h11.85v-16.22h15.12v16.22h15.5v14.6h-15.5v27.75c0,8.03,4.07,10.43,15.4,9.57v13.63ZM792.08,80.74c-19.41,0-34.62,15.15-34.62,34.49s15.21,34.49,34.62,34.49,34.62-15.15,34.62-34.49-15.2-34.49-34.62-34.49M792.08,134.99c-11.12,0-19.5-8.49-19.5-19.76s8.38-19.76,19.5-19.76,19.5,8.5,19.5,19.76-8.38,19.76-19.5,19.76" style="fill: #6abd28;"/>
      <g style="mix-blend-mode: multiply;">
        <g style="clip-path: url(#clippath-2);">
          <g style="clip-path: url(#clippath-3);">
            <path d="M76.67,64.04c0-21.17-17.16-38.33-38.33-38.33S0,42.87,0,64.04s17.16,38.33,38.33,38.33,38.33-17.16,38.33-38.33" style="fill: #9dd473;"/>
          </g>
        </g>
      </g>
      <g style="mix-blend-mode: multiply;">
        <g style="clip-path: url(#clippath-4);">
          <g style="clip-path: url(#clippath-5);">
            <path d="M141.72,169.13c0-14.82-12.01-26.83-26.83-26.83s-26.83,12.01-26.83,26.83,12.01,26.83,26.83,26.83,26.83-12.01,26.83-26.83" style="fill: #bbe19d;"/>
          </g>
        </g>
      </g>
      <g style="mix-blend-mode: multiply;">
        <g style="clip-path: url(#clippath-6);">
          <g style="clip-path: url(#clippath-7);">
            <path d="M180.38,18.78C180.38,8.41,171.97,0,161.6,0s-18.78,8.41-18.78,18.78,8.41,18.78,18.78,18.78,18.78-8.41,18.78-18.78" style="fill: #87ca53;"/>
          </g>
        </g>
      </g>
    </g>
  </g>
</svg>